#!OML:ASF Y:\EmotionMaleHayes\Project 1\Capture day 1\Session 1\Male1.ASF
:FULLY-SPECIFIED
:DEGREES
130
root -5.46133 15.5157 2.056 32.495 -77.8779 -15.4861
lowerback 33.2075 1.40704 -10.5758
upperback 10.7837 -3.16098 -5.55613
thorax -4.81116 -2.00305 0.79086
lowerneck -23.3716 1.27818 2.6425
upperneck 7.63232 -0.387178 7.96783
head 6.0978 0.526691 2.1236
rclavicle -5.08889e-014 -5.40694e-014
rhumerus -61.3824 -40.7834 22.8159
rradius 49.9123
rwrist -61.4203
rhand -37.4936 -48.1586
rfingers 7.12502
rthumb -10.5508 -77.8738
lclavicle -5.08889e-014 -5.40694e-014
lhumerus 41.8496 -9.10885 41.1555
lradius 44.0428
lwrist 18.6619
lhand -20.9946 -14.1534
lfingers 7.12502
lthumb 5.37958 15.7583
rfemur -28.6982 -11.6545 17.4821
rtibia 61.9334
rfoot -30.3721 -19.0113
rtoes -14.8093
lfemur -36.695 3.32895 18.3819
ltibia 31.5757
lfoot -8.28106 11.9786
ltoes -24.6654
131
root -5.39721 15.4952 1.98757 35.8602 -78.1775 -19.4736
lowerback 33.4784 1.29913 -10.0062
upperback 10.981 -3.1816 -5.64926
thorax -4.74838 -2.02386 0.41112
lowerneck -23.4955 1.75461 3.22575
upperneck 7.71433 0.0801775 7.76844
head 6.12895 0.758175 2.02381
rclavicle -2.54444e-014 -1.47896e-013
rhumerus -57.1587 -43.2414 22.1551
rradius 50.5851
rwrist -61.2439
rhand -36.0334 -46.6587
rfingers 7.12502
rthumb -9.14208 -76.4405
lclavicle -2.54444e-014 -1.47896e-013
lhumerus 41.4116 -11.5114 44.3345
lradius 42.345
lwrist 16.2932
lhand -21.482 -14.3247
lfingers 7.12502
lthumb 4.909 15.5984
rfemur -27.4774 -10.7352 18.0318
rtibia 60.6659
rfoot -31.1345 -17.7843
rtoes -14.2345
lfemur -37.3064 2.30199 19.404
ltibia 33.808
lfoot -8.59761 13.5148
ltoes -25.1219
132
root -5.31974 15.468 1.93022 38.3651 -78.6442 -22.6121
lowerback 33.7868 1.2322 -9.57586
upperback 11.1949 -3.2098 -5.79189
thorax -4.67239 -2.05185 0.051608
lowerneck -23.0594 2.0353 4.291
upperneck 7.50225 0.261147 7.15809
head 5.98752 0.808567 1.66893
rclavicle -3.81667e-014 -3.18055e-015
rhumerus -52.1373 -45.0684 20.6101
rradius 51.5987
rwrist -61.957
rhand -35.1 -44.772
rfingers 7.12502
rthumb -8.24128 -74.5912
lclavicle -3.81667e-014 -3.18055e-015
lhumerus 40.8287 -13.8132 47.6524
lradius 40.523
lwrist 13.8056
lhand -21.956 -14.165
lfingers 7.12502
lthumb 4.45123 15.7682
rfemur -26.5963 -10.0715 18.2242
rtibia 60.0685
rfoot -32.0363 -16.5324
rtoes -14.935
lfemur -38.3235 1.54034 19.8739
ltibia 36.7472
lfoot -8.38165 14.6199
ltoes -21.5414
133
root -5.24121 15.4354 1.88637 41.0486 -79.2666 -25.9989
lowerback 34.1184 1.16996 -9.20606
upperback 11.4557 -3.26114 -5.95299
thorax -4.54873 -2.0974 -0.290321
lowerneck -23.5002 2.55681 4.12701
upperneck 7.88721 0.883585 7.54263
head 6.16934 1.15974 1.90518
rclavicle -2.54444e-014 -3.02153e-014
rhumerus -47.027 -46.5566 18.2809
rradius 53.4072
rwrist -62.5396
rhand -32.8391 -42.0254
rfingers 7.12502
rthumb -6.05891 -71.9187
lclavicle -2.54444e-014 -3.02153e-014
lhumerus 39.8942 -15.8795 50.9535
lradius 38.7715
lwrist 11.3702
lhand -22.3214 -14.0297
lfingers 7.12502
lthumb 4.09841 15.9106
rfemur -25.9351 -9.64937 18.2639
rtibia 59.8786
rfoot -32.609 -15.3883
rtoes -16.4069
lfemur -39.4784 1.10314 20.0275
ltibia 40.1053
lfoot -6.85904 15.5817
ltoes -12.63
134
root -5.16097 15.3995 1.85405 45.5681 -79.9476 -31.2421
lowerback 34.4592 1.14901 -8.74646
upperback 11.7363 -3.23114 -6.04206
thorax -4.41107 -2.10678 -0.62998
lowerneck -23.2438 2.85456 4.57596
upperneck 7.60676 1.25335 7.05887
head 6.0322 1.29564 1.7115
rclavicle 6.36111e-015 3.18055e-014
rhumerus -41.3585 -47.7753 15.3138
rradius 55.2537
rwrist -62.7671
rhand -31.2113 -40.9235
rfingers 7.12502
rthumb -4.48718 -70.856
lclavicle 6.36111e-015 3.18055e-014
lhumerus 38.7475 -17.7013 54.2746
lradius 37.1759
lwrist 9.11491
lhand -22.4883 -13.8122
lfingers 7.12502
lthumb 3.93724 16.1311
rfemur -25.5389 -9.19238 18.511
rtibia 59.9095
rfoot -32.8296 -14.5035
rtoes -18.0932
lfemur -40.6233 1.0239 20.199
ltibia 43.6379
lfoot -4.79992 16.1991
ltoes -6.05317
